<svg id="Group_970" data-name="Group 970" xmlns="http://www.w3.org/2000/svg" xmlns:xlink="http://www.w3.org/1999/xlink" width="242.597" height="248.278" viewBox="0 0 242.597 248.278">
  <defs>
    <clipPath id="clip-path">
      <rect id="Rectangle_302" data-name="Rectangle 302" width="242.188" height="14.494" fill="none"/>
    </clipPath>
    <clipPath id="clip-path-2">
      <rect id="Rectangle_303" data-name="Rectangle 303" width="56.863" height="28.859" fill="none"/>
    </clipPath>
  </defs>
  <path id="Path_1906" data-name="Path 1906" d="M3447.576,5470.808s7.748,32.055,6.8,32.055h-6.8l-8.776-28.224,8.776-4.839Z" transform="translate(-3294.762 -5395.743)" fill="#ce996a"/>
  <g id="Group_849" data-name="Group 849" transform="translate(0 229.051)" opacity="0.1">
    <g id="Group_848" data-name="Group 848" transform="translate(0 0)">
      <g id="Group_847" data-name="Group 847" clip-path="url(#clip-path)">
        <g id="Group_846" data-name="Group 846" transform="translate(0)">
          <path id="Path_1801" data-name="Path 1801" d="M-140.731-4.211c0,4-54.216,7.248-121.094,7.248S-382.919-.208-382.919-4.211s54.215-7.247,121.094-7.247,121.094,3.245,121.094,7.247" transform="translate(382.919 11.458)"/>
        </g>
      </g>
    </g>
  </g>
  <g id="Group_850" data-name="Group 850" transform="translate(181.241 182.909)">
    <path id="Path_1802" data-name="Path 1802" d="M-15.542-6.576A15.447,15.447,0,0,0-30.973,8.855,15.447,15.447,0,0,0-15.542,24.286,15.448,15.448,0,0,0-.112,8.855,15.447,15.447,0,0,0-15.542-6.576m0,42.178A26.777,26.777,0,0,1-42.289,8.855,26.777,26.777,0,0,1-15.542-17.892,26.777,26.777,0,0,1,11.2,8.855,26.777,26.777,0,0,1-15.542,35.6" transform="translate(42.289 17.892)" fill="#3e4443"/>
  </g>
  <g id="Group_851" data-name="Group 851" transform="translate(182.995 188.567)">
    <path id="Path_1803" data-name="Path 1803" d="M0-12.255A21.089,21.089,0,0,0,21.089,8.834,21.089,21.089,0,0,0,42.178-12.255,21.09,21.09,0,0,0,21.089-33.344,21.09,21.09,0,0,0,0-12.255" transform="translate(0 33.344)" fill="#aaa"/>
  </g>
  <g id="Group_852" data-name="Group 852" transform="translate(198.204 204.18)">
    <path id="Path_1804" data-name="Path 1804" d="M0-3.487a6,6,0,0,0,6,6,6,6,0,0,0,6-6,6,6,0,0,0-6-6,6,6,0,0,0-6,6" transform="translate(0 9.487)" fill="#9b9b9b"/>
  </g>
  <g id="Group_853" data-name="Group 853" transform="translate(195.632 201.608)">
    <path id="Path_1805" data-name="Path 1805" d="M-4.981-2.989A3.433,3.433,0,0,0-8.41.44,3.433,3.433,0,0,0-4.981,3.869,3.434,3.434,0,0,0-1.551.44a3.434,3.434,0,0,0-3.43-3.429m0,12A8.582,8.582,0,0,1-13.554.44,8.582,8.582,0,0,1-4.981-8.132,8.582,8.582,0,0,1,3.592.44,8.582,8.582,0,0,1-4.981,9.013" transform="translate(13.554 8.132)" fill="#c5c5c5"/>
  </g>
  <g id="Group_854" data-name="Group 854" transform="translate(177.337 182.909)">
    <path id="Path_1806" data-name="Path 1806" d="M-15.542-6.576A15.447,15.447,0,0,0-30.973,8.855,15.447,15.447,0,0,0-15.542,24.286,15.448,15.448,0,0,0-.112,8.855,15.447,15.447,0,0,0-15.542-6.576m0,42.178A26.777,26.777,0,0,1-42.289,8.855,26.777,26.777,0,0,1-15.542-17.892,26.777,26.777,0,0,1,11.2,8.855,26.777,26.777,0,0,1-15.542,35.6" transform="translate(42.289 17.892)" fill="#272727"/>
  </g>
  <g id="Group_858" data-name="Group 858" transform="translate(177.587 181.679)" opacity="0.3">
    <g id="Group_857" data-name="Group 857">
      <g id="Group_856" data-name="Group 856" clip-path="url(#clip-path-2)">
        <g id="Group_855" data-name="Group 855" transform="translate(0 0)">
          <path id="Path_1807" data-name="Path 1807" d="M-33.042-16.77h0A28.679,28.679,0,0,0-61.473-45.629,28.68,28.68,0,0,0-89.9-16.77Z" transform="translate(89.905 45.629)"/>
        </g>
      </g>
    </g>
  </g>
  <g id="Group_859" data-name="Group 859" transform="translate(208.573 169.086)">
    <path id="Path_1808" data-name="Path 1808" d="M0,0S22.412,1.909,25.624,5.637L27.217,18.5Z" fill="#888"/>
  </g>
  <g id="Group_860" data-name="Group 860" transform="translate(173.277 168.506)">
    <path id="Path_1809" data-name="Path 1809" d="M-20.141,0A34.66,34.66,0,0,0-54.8,34.66h69.32A34.66,34.66,0,0,0-20.141,0" transform="translate(54.801)" fill="#e83939"/>
  </g>
  <g id="Group_861" data-name="Group 861" transform="translate(173.277 168.507)">
    <path id="Path_1810" data-name="Path 1810" d="M-24.114-.394a34.8,34.8,0,0,0-6.838-.678,34.66,34.66,0,0,0-34.66,34.66h13.677A34.669,34.669,0,0,1-24.114-.394" transform="translate(65.612 1.072)" fill="#e46464"/>
  </g>
  <g id="Group_862" data-name="Group 862" transform="translate(18.18 112.996)">
    <path id="Path_1811" data-name="Path 1811" d="M-2.309-44.252S11.624-83.092,40.97-83.589H99.663s-19.9,6.963-19.9,25.367,15.917,18.4,25.367,18.4h22.649s30.49,2.921,22.7-43.771l-10.425-36.817,9.611,4.349,25.071,47.592-1.1,3.958C159.351-60.353,149-47.211,145.88-32.491c-7.64,3.243-28.145,3.616-47.212,3.616H-6.283S-5.127-38.2-2.309-44.252" transform="translate(6.283 120.406)" fill="#e83939"/>
  </g>
  <g id="Group_863" data-name="Group 863" transform="translate(33.609 182.91)">
    <path id="Path_1812" data-name="Path 1812" d="M-15.542-31.084A26.777,26.777,0,0,1-42.289-57.831,26.777,26.777,0,0,1-15.542-84.578,26.777,26.777,0,0,1,11.2-57.831,26.777,26.777,0,0,1-15.542-31.084" transform="translate(42.289 84.578)" fill="#3e4443"/>
  </g>
  <g id="Group_864" data-name="Group 864" transform="translate(36.057 190.145)">
    <path id="Path_1813" data-name="Path 1813" d="M0-11.85A20.393,20.393,0,0,0,20.394,8.543,20.393,20.393,0,0,0,40.787-11.85,20.393,20.393,0,0,0,20.394-32.243,20.393,20.393,0,0,0,0-11.85" transform="translate(0 32.243)" fill="#aaa"/>
  </g>
  <g id="Group_865" data-name="Group 865" transform="translate(30.586 184.673)">
    <path id="Path_1814" data-name="Path 1814" d="M-15.029-6.359A14.939,14.939,0,0,0-29.951,8.563,14.939,14.939,0,0,0-15.029,23.485,14.939,14.939,0,0,0-.107,8.563,14.939,14.939,0,0,0-15.029-6.359m0,40.787A25.893,25.893,0,0,1-40.894,8.563,25.894,25.894,0,0,1-15.029-17.3,25.894,25.894,0,0,1,10.835,8.563,25.893,25.893,0,0,1-15.029,34.428" transform="translate(40.894 17.302)" fill="#272727"/>
  </g>
  <g id="Group_866" data-name="Group 866" transform="translate(78.501 129.843)">
    <path id="Path_1815" data-name="Path 1815" d="M-32.582-5.825c0,4.669-2.777,8.454-6.2,8.454H-82.449c-3.425,0-6.2-3.785-6.2-8.454s2.611-10.024,6.037-10.024L-38.853-9.7c6.268.581,6.271,3.876,6.271,3.876" transform="translate(88.652 15.849)" fill="#272727"/>
  </g>
  <g id="Group_867" data-name="Group 867" transform="translate(78.757 139.969)">
    <path id="Path_1816" data-name="Path 1816" d="M-25.633-1.6c-1.01,0-43.178-.341-43.178-.341a5.269,5.269,0,0,1-.935-.094C-68.989,1.454-66.615,4-63.8,4h43.665c3.41,0,6.174-3.734,6.2-8.352C-17.491-2.074-21.282-1.6-25.633-1.6" transform="translate(69.746 4.35)"/>
  </g>
  <g id="Group_868" data-name="Group 868" transform="translate(50.647 204.735)">
    <path id="Path_1817" data-name="Path 1817" d="M0-3.372a5.8,5.8,0,0,0,5.8,5.8,5.8,5.8,0,0,0,5.8-5.8,5.8,5.8,0,0,0-5.8-5.8A5.8,5.8,0,0,0,0-3.372" transform="translate(0 9.175)" fill="#9b9b9b"/>
  </g>
  <g id="Group_869" data-name="Group 869" transform="translate(48.16 202.249)">
    <path id="Path_1818" data-name="Path 1818" d="M-4.817-2.89A3.32,3.32,0,0,0-8.133.425,3.319,3.319,0,0,0-4.817,3.741,3.319,3.319,0,0,0-1.5.425,3.319,3.319,0,0,0-4.817-2.89m0,11.605a8.3,8.3,0,0,1-8.29-8.29,8.3,8.3,0,0,1,8.29-8.289A8.3,8.3,0,0,1,3.472.425a8.3,8.3,0,0,1-8.289,8.29" transform="translate(13.107 7.864)" fill="#c5c5c5"/>
  </g>
  <g id="Group_873" data-name="Group 873" transform="translate(30.586 181.679)" opacity="0.3">
    <g id="Group_872" data-name="Group 872">
      <g id="Group_871" data-name="Group 871" clip-path="url(#clip-path-2)">
        <g id="Group_870" data-name="Group 870" transform="translate(0 0)">
          <path id="Path_1819" data-name="Path 1819" d="M-33.042-16.77h0A28.68,28.68,0,0,0-61.474-45.629,28.679,28.679,0,0,0-89.9-16.77Z" transform="translate(89.905 45.629)"/>
        </g>
      </g>
    </g>
  </g>
  <g id="Group_874" data-name="Group 874" transform="translate(18.181 149.813)">
    <path id="Path_1820" data-name="Path 1820" d="M-37.188-30.059S13.178-27,33.045-32.049,58.314-53.526,56.483-74.961c0,40.787-23.6,36.944-23.6,36.944H10.23c-9.451,0-25.367,0-25.367-18.4s19.9-25.367,19.9-25.367H-53.935c-29.346.5-43.279,39.337-43.279,39.337-2.818,6.054-3.974,15.377-3.974,15.377H-36.28Z" transform="translate(101.187 81.788)" fill="#c52c2c"/>
  </g>
  <g id="Group_875" data-name="Group 875" transform="translate(26.584 154.787)">
    <path id="Path_1821" data-name="Path 1821" d="M-12.651,0h-12.3s-12.9,5.637-8.592,11.937c0,0,5.306,3.979,6.964,1.99Z" transform="translate(34.424)" fill="#ac2116"/>
  </g>
  <g id="Group_876" data-name="Group 876" transform="translate(28.22 154.787)">
    <path id="Path_1822" data-name="Path 1822" d="M-6.807,0c-1.031,1.723-8.156,10.9-11.714,12.461,1.522,1.007,4.936,2.994,6.209,1.466L1.615,0Z" transform="translate(18.521)" fill="#888"/>
  </g>
  <g id="Group_877" data-name="Group 877" transform="translate(25.779 157.705)">
    <path id="Path_1823" data-name="Path 1823" d="M-34.144-.614C-70.326-8.32-92.9,28.014-92.9,46.617h67.372C-12.018,29.5-11.989,4.1-34.144-.614" transform="translate(92.903 1.671)" fill="#e83939"/>
  </g>
  <g id="Group_878" data-name="Group 878" transform="translate(25.779 157.705)">
    <path id="Path_1824" data-name="Path 1824" d="M-34.517-3.787c-32.9-7.006-54.546,22.392-58.205,41.771h-1.2c0-18.6,22.577-54.936,58.759-47.232,12.2,2.6,17.664,11.474,17.86,21.781-1.772-7.87-7.237-14.2-17.217-16.32" transform="translate(93.919 10.304)" fill="#e46464"/>
  </g>
  <g id="Group_879" data-name="Group 879" transform="translate(16.711 148.069)">
    <path id="Path_1825" data-name="Path 1825" d="M-62.417-.147h-32.8c-8.79,0-17.8-.591-26.575.037C-150,1.909-165.137,31.157-169.8,55.663c-.358,1.88,2.518,2.682,2.878.793,4.338-22.789,18.669-52.542,45.715-53.615,19.534-.775,39.24,0,58.792,0a1.493,1.493,0,0,0,0-2.985" transform="translate(169.833 0.399)" fill="#921b1b"/>
  </g>
  <g id="Group_880" data-name="Group 880" transform="translate(143.824 107.909)">
    <path id="Path_1826" data-name="Path 1826" d="M-.046-3.956A2.921,2.921,0,0,0,3.414-2.13l18.4-3.77a2.475,2.475,0,0,0,2.127-2.971,2.921,2.921,0,0,0-3.46-1.826L2.08-6.927A2.475,2.475,0,0,0-.046-3.956" transform="translate(0.125 10.764)" fill="#4e4e50"/>
  </g>
  <g id="Group_881" data-name="Group 881" transform="translate(143.903 109.803)">
    <path id="Path_1827" data-name="Path 1827" d="M0-2.856A2.921,2.921,0,0,0,3.46-1.03L21.86-4.8A2.475,2.475,0,0,0,23.987-7.77Z" transform="translate(0 7.77)" fill="#282828"/>
  </g>
  <g id="Group_882" data-name="Group 882" transform="translate(162.889 100.109)">
    <path id="Path_1828" data-name="Path 1828" d="M-12.244-4.72a9.781,9.781,0,0,1-7.978,11.3c-5.324.916-12.072-2.365-12.989-7.688s4.344-10.672,9.668-11.59a9.78,9.78,0,0,1,11.3,7.979" transform="translate(33.316 12.842)" fill="#c52c2c"/>
  </g>
  <g id="Group_883" data-name="Group 883" transform="translate(162.889 100.109)">
    <path id="Path_1829" data-name="Path 1829" d="M-5.679-2.217c-4.276.736-8.5,4.334-9.531,8.479-.048-.186-.1-.369-.137-.56C-16.263.379-11-4.971-5.679-5.887A9.78,9.78,0,0,1,5.62,2.091a9.724,9.724,0,0,1-.04,3.492,9.776,9.776,0,0,0-11.259-7.8" transform="translate(15.451 6.031)" fill="#e46464"/>
  </g>
  <g id="Group_884" data-name="Group 884" transform="translate(172.661 100.109)">
    <path id="Path_1830" data-name="Path 1830" d="M0-.083A9.781,9.781,0,0,1,3.321,19.194Z" transform="translate(0 0.227)" fill="#677677"/>
  </g>
  <g id="Group_885" data-name="Group 885" transform="translate(173.402 103.778)">
    <path id="Path_1831" data-name="Path 1831" d="M-2.165-.542a13.077,13.077,0,0,0,4.826-.934A9.726,9.726,0,0,1,4.667,2.977a9.781,9.781,0,0,1-7.978,11.3L-5.892-.7c1.2.117,2.438.16,3.727.16" transform="translate(5.892 1.476)" fill="#4e4e50"/>
  </g>
  <g id="Group_886" data-name="Group 886" transform="translate(176.893 100.463)">
    <path id="Path_1832" data-name="Path 1832" d="M0,0A9.774,9.774,0,0,1,7.067,7.767a9.772,9.772,0,0,1-4.062,9.684Z" fill="#ffa726"/>
  </g>
  <g id="Group_887" data-name="Group 887" transform="translate(176.893 100.463)">
    <path id="Path_1833" data-name="Path 1833" d="M-.464-2.7l-.8-4.638A9.773,9.773,0,0,1,5.8.435a9.692,9.692,0,0,1-.111,3.846A9.761,9.761,0,0,0-.464-2.7" transform="translate(1.263 7.333)" fill="rgba(255,167,38,0)"/>
  </g>
  <g id="Group_888" data-name="Group 888" transform="translate(160.701 107.252)">
    <path id="Path_1834" data-name="Path 1834" d="M-.561-3.972a1.928,1.928,0,0,0,2.155,1.4A1.609,1.609,0,0,0,3.146-4.384L2.2-9.394a1.928,1.928,0,0,0-2.155-1.4A1.609,1.609,0,0,0-1.5-8.981Z" transform="translate(1.527 10.807)" fill="#cc7a1b"/>
  </g>
  <g id="Group_889" data-name="Group 889" transform="translate(74.895 169.715)">
    <path id="Path_1835" data-name="Path 1835" d="M0-.425A.731.731,0,0,0,.732.307H7.239a.732.732,0,0,0,.732-.732.732.732,0,0,0-.732-.732H.732A.732.732,0,0,0,0-.425" transform="translate(0 1.157)" fill="#c52c2c"/>
  </g>
  <g id="Group_890" data-name="Group 890" transform="translate(74.895 190.375)">
    <path id="Path_1836" data-name="Path 1836" d="M0-.426A.732.732,0,0,0,.732.306H7.239a.732.732,0,0,0,.732-.732.732.732,0,0,0-.732-.732H.732A.732.732,0,0,0,0-.426" transform="translate(0 1.158)" fill="#c52c2c"/>
  </g>
  <g id="Group_891" data-name="Group 891" transform="translate(68.876 173.131)">
    <path id="Path_1837" data-name="Path 1837" d="M0-.425A.732.732,0,0,0,.732.307H18.3a.731.731,0,0,0,.732-.732.732.732,0,0,0-.732-.732H.732A.732.732,0,0,0,0-.425" transform="translate(0 1.157)" fill="#c52c2c"/>
  </g>
  <g id="Group_892" data-name="Group 892" transform="translate(66.843 176.547)">
    <path id="Path_1838" data-name="Path 1838" d="M0-.425A.731.731,0,0,0,.732.307H22.124a.732.732,0,0,0,.732-.732.732.732,0,0,0-.732-.732H.732A.732.732,0,0,0,0-.425" transform="translate(0 1.157)" fill="#c52c2c"/>
  </g>
  <g id="Group_893" data-name="Group 893" transform="translate(66.11 180.126)">
    <path id="Path_1839" data-name="Path 1839" d="M0-.426A.732.732,0,0,0,.732.306H23.467A.732.732,0,0,0,24.2-.426a.732.732,0,0,0-.732-.732H.732A.732.732,0,0,0,0-.426" transform="translate(0 1.158)" fill="#c52c2c"/>
  </g>
  <g id="Group_894" data-name="Group 894" transform="translate(67.452 183.38)">
    <path id="Path_1840" data-name="Path 1840" d="M0-.425A.732.732,0,0,0,.732.307H21.514a.731.731,0,0,0,.732-.732.732.732,0,0,0-.732-.732H.732A.732.732,0,0,0,0-.425" transform="translate(0 1.157)" fill="#c52c2c"/>
  </g>
  <g id="Group_895" data-name="Group 895" transform="translate(69.567 186.796)">
    <path id="Path_1841" data-name="Path 1841" d="M0-.425A.732.732,0,0,0,.732.307H17.61a.731.731,0,0,0,.732-.732.732.732,0,0,0-.732-.732H.732A.732.732,0,0,0,0-.425" transform="translate(0 1.157)" fill="#c52c2c"/>
  </g>
  <g id="Group_900" data-name="Group 900" transform="translate(106.78 98.987)">
    <path id="Path_1847" data-name="Path 1847" d="M-.348-3.326S-3.859,46.57,6.13,71.826l49.558,36.742,1.86-7.021L19.025,64.359s-5.748-22.706-2.839-36.583l7.675-1.77s1.58,64.082,4.739,100.143h7.076s7.005-101,2.874-123.383S-.348-3.326-.348-3.326" transform="translate(0.946 9.049)" fill="#bebebe"/>
  </g>
  <g id="Group_901" data-name="Group 901" transform="translate(131.588 133.061)">
    <path id="Path_1848" data-name="Path 1848" d="M-.872-26.411l5.866,4.866c-1-24.175-1.916-50.318-1.916-50.318l-5.451.98c.116,4.416.8,26.521,1.5,44.471" transform="translate(2.373 71.863)" fill="#959595"/>
  </g>
  <g id="Group_902" data-name="Group 902" transform="translate(138.229 193.584)">
    <path id="Path_1849" data-name="Path 1849" d="M0,0C-.079,1.424,1.747,4.229,1.671,5.59l23.51,17.43.964-3.635Z" transform="translate(0.004)" fill="#959595"/>
  </g>
  <g id="Group_903" data-name="Group 903" transform="translate(106.78 98.99)">
    <path id="Path_1850" data-name="Path 1850" d="M-19.117-55.591l-19.957-14.8c-9.988-25.255-6.477-75.151-6.477-75.151s10.037-4.7,19.966-5.58c-11.376-1.19-25.833,5.58-25.833,5.58s-3.511,49.9,6.478,75.151l19.956,14.8c.682,14.037,1.519,28.171,2.513,39.527H-16.6c-.995-11.356-1.833-25.491-2.514-39.527" transform="translate(52.016 151.258)" fill="#959595"/>
  </g>
  <g id="Group_904" data-name="Group 904" transform="translate(136.326 234.185)">
    <path id="Path_1851" data-name="Path 1851" d="M0,0V5.285s13.581,7.532,23.556,8.808c0,0,1.531-7.046-15.729-11.871L7.076,0Z" fill="#7e5d46"/>
  </g>
  <g id="Group_905" data-name="Group 905" transform="translate(136.326 234.185)">
    <path id="Path_1852" data-name="Path 1852" d="M-3.547,0h-6.1V5.285S-5.95,7.337-1,9.479A21.919,21.919,0,0,1-3.547,0" transform="translate(9.651)" fill="#685141"/>
  </g>
  <g id="Group_906" data-name="Group 906" transform="translate(136.326 237.844)">
    <path id="Path_1853" data-name="Path 1853" d="M0,0V1.626s13.581,7.532,23.556,8.808a3.885,3.885,0,0,0-.137-1.646C13.457,7.461,0,0,0,0" fill="#51392a"/>
  </g>
  <g id="Group_907" data-name="Group 907" transform="translate(156.817 211.226)">
    <path id="Path_1854" data-name="Path 1854" d="M-4.661,0,5.306,7.31S2.577,21.5-1.835,22.958H-12.683s-.161-4.27,7.218-6.3L-2.987,6.3l-2.8-2.069Z" transform="translate(12.683)" fill="#7e5d46"/>
  </g>
  <g id="Group_908" data-name="Group 908" transform="translate(163.716 211.226)">
    <path id="Path_1855" data-name="Path 1855" d="M-1.262-5.18A22.793,22.793,0,0,1,5.463,1.3,64.9,64.9,0,0,0,7.656-6.785l-9.967-7.31L-3.434-9.861l2.8,2.069Z" transform="translate(3.434 14.095)" fill="#685141"/>
  </g>
  <g id="Group_909" data-name="Group 909" transform="translate(156.817 217.683)">
    <path id="Path_1856" data-name="Path 1856" d="M-9.778,0c-.388,1.9-3.023,14.049-7.089,15.391H-26.4A3.506,3.506,0,0,0-26.6,16.5h10.848C-11.344,15.045-8.615.853-8.615.853Z" transform="translate(26.604)" fill="#51392a"/>
  </g>
  <g id="Group_910" data-name="Group 910" transform="translate(104.14 53.625)">
    <path id="Path_1857" data-name="Path 1857" d="M-1.694-36.753s22.1,8.807,41.5,4.212c0,0-7.771-36.492-2.666-57.937,0,0-19.172-16.647-36.447-5.924,0,0-10.132,8.718-2.389,59.649" transform="translate(4.609 100.002)" fill="rgba(255,167,38,0.73)"/>
  </g>
  <g id="Group_911" data-name="Group 911" transform="translate(104.14 54.305)">
    <path id="Path_1858" data-name="Path 1858" d="M-17.875-28.692A36.72,36.72,0,0,1-37.388-43.814c-3.637-4.339-6.023-8.868-6.161-14.808a22.384,22.384,0,0,1,.806-6.475,22.433,22.433,0,0,1,6.337-12.972,23.651,23.651,0,0,0-6.926,2.92S-53.464-66.432-45.721-15.5c0,0,22.1,8.807,41.5,4.212,0,0-1.461-6.868-2.7-16.392a26.667,26.667,0,0,1-10.956-1.012" transform="translate(48.636 78.069)" fill="#ffa726"/>
  </g>
  <g id="Group_912" data-name="Group 912" transform="translate(86.155 56.407)">
    <path id="Path_1859" data-name="Path 1859" d="M0-41.325c2.925,1.941.6,1.66,2.217,4.737.347-.214,7.384-2.87,7.563-3.248,4.506-9.47,10.914-61.908,10.914-61.908a4.644,4.644,0,0,1-1.1-2.069c-1.391.124-2.827.169-4.32.169-.681,0,5.024-8.717,4.368-8.8-.04.663-7.643.669-8.908,10.223C5.546-63.016,6.909-41.084,0-41.325" transform="translate(0 112.443)" fill="#e1af7e"/>
  </g>
  <g id="Group_913" data-name="Group 913" transform="translate(93.745 56.407)">
    <path id="Path_1860" data-name="Path 1860" d="M-6.978-5.014c-1.391.124-2.828.169-4.32.169-.681,0,5.024-8.717,4.368-8.8-.03.486-4.105.624-6.786,4.4C-11.669-10.5-9.781-10.667-9.761-11c.656.08-5.048,8.8-4.368,8.8,1.493,0,2.93-.044,4.32-.168A4.65,4.65,0,0,0-8.712-.3s-5.827,47.679-10.275,60.319A10.613,10.613,0,0,0-16.8,58.964C-12.29,49.494-5.882-2.945-5.882-2.945a4.644,4.644,0,0,1-1.1-2.069" transform="translate(18.987 13.643)" fill="#cc9263"/>
  </g>
  <g id="Group_914" data-name="Group 914" transform="translate(86.155 127.489)">
    <path id="Path_1861" data-name="Path 1861" d="M-.308,0a3.034,3.034,0,0,1-.53.036c.144.095.264.18.383.266.05-.1.1-.2.147-.3" transform="translate(0.838)" fill="#cc9263"/>
  </g>
  <g id="Group_915" data-name="Group 915" transform="translate(93.672 47.916)">
    <path id="Path_1862" data-name="Path 1862" d="M-13.282-.4S-23.357-3.579-29.051,3.826c-2.508,3.62-5.781,5.826-7.089,19.719,0,0,4.134,4.406,12.839,4.381l3.255-7.363,30.719.405,2.271,9.847,9.934-4.146s3.989-15.616-9.111-19.795C7.836,4.983-13.282-.4-13.282-.4" transform="translate(36.14 1.076)" fill="rgba(255,167,38,0.65)"/>
  </g>
  <g id="Group_916" data-name="Group 916" transform="translate(93.672 47.917)">
    <path id="Path_1863" data-name="Path 1863" d="M-9.038-11.988a60.5,60.5,0,0,1,4-20.55c-3.446-.315-8.843.107-12.467,4.821C-20.012-24.1-23.284-21.891-24.593-8c0,0,4.133,4.407,12.839,4.381l2.8-6.327a19.55,19.55,0,0,1-.081-2.044" transform="translate(24.593 32.618)" fill="#ffa726"/>
  </g>
  <g id="Group_917" data-name="Group 917" transform="translate(79.435 126.706)">
    <path id="Path_1864" data-name="Path 1864" d="M-4.415-.408s-7.778.624-7.594,5.484c0,0,.8,6.528,1.658,5.453,0,0,1.307-.448.718-5.453,0,0-.144,6.5,2.489,6.522.91.006.623-6.568.623-6.568s.466,6.554,3.031,6.568c1.161.006.319-6.478.319-6.478S3.916,5.176,4.489,1.2s-8.9-1.6-8.9-1.6" transform="translate(12.012 1.111)" fill="#e1af7e"/>
  </g>
  <g id="Group_918" data-name="Group 918" transform="translate(79.435 127.096)">
    <path id="Path_1865" data-name="Path 1865" d="M-8.934,0c-2.69,3.034-8.653,3.566-12.034,3.566a15.613,15.613,0,0,1-2.585-.242A3.819,3.819,0,0,0-24.3,5.8s.8,6.528,1.658,5.452c0,0,.822-.292.866-2.918.234,1.828.829,3.977,2.341,3.988.91.006.623-6.568.623-6.568s.466,6.554,3.031,6.568c1.161.006.319-6.479.319-6.479S-8.38,5.9-7.807,1.918A1.667,1.667,0,0,0-8.934,0" transform="translate(24.308)" fill="#cc9263"/>
  </g>
  <g id="Group_921" data-name="Group 921" transform="translate(116.932 48.714)">
    <path id="Path_1868" data-name="Path 1868" d="M-.033,0S-1.41,10.645,9.331,11.442s8.331-6.85,8.331-6.85Z" transform="translate(0.091)" fill="#e1af7e"/>
  </g>
  <g id="Group_922" data-name="Group 922" transform="translate(114.994 3.665)">
    <path id="Path_1869" data-name="Path 1869" d="M-.648-9.709C-4.212,2.178,1.026,14.672,11.295,17.331c11.751,3.043,21.286-4.121,24.85-16.008S34.362-22.671,24.2-25.717,2.916-21.6-.648-9.709" transform="translate(1.764 26.418)" fill="#e1af7e"/>
  </g>
  <g id="Group_923" data-name="Group 923" transform="translate(114.994 3.665)">
    <path id="Path_1870" data-name="Path 1870" d="M-3.135-17.237a34.176,34.176,0,0,1,1.55-6.548A29.624,29.624,0,0,1,1.477-29.66a17.875,17.875,0,0,1,7.079-5.781l4.6-1.376a17.97,17.97,0,0,1,13.318,3.2,17.883,17.883,0,0,1,3.786,3.736c-1.05-7.733-5.778-14.2-12.824-16.317C7.275-49.245-3.851-42.078-7.416-30.191c-2.977,9.931.192,20.28,7.3,24.97A17.245,17.245,0,0,1-3.135-17.237" transform="translate(8.531 46.9)" fill="#cc9263"/>
  </g>
  <g id="Group_924" data-name="Group 924" transform="translate(121.259 45.225)">
    <path id="Path_1871" data-name="Path 1871" d="M-.989,0l-1.7,8.4,8.134,2.782L7.13,3.152A13.917,13.917,0,0,1-.989,0" transform="translate(2.692)" fill="#cc9263"/>
  </g>
  <g id="Group_925" data-name="Group 925" transform="translate(121.259 49.229)">
    <path id="Path_1872" data-name="Path 1872" d="M-3.439-.587A13.105,13.105,0,0,1-8.465-1.6l-.891,4.4,8.134,2.782L.1-.73c-1.142.1-2.32.143-3.543.143" transform="translate(9.356 1.598)" fill="#e1af7e"/>
  </g>
  <g id="Group_926" data-name="Group 926" transform="translate(115.005 30.06)">
    <path id="Path_1873" data-name="Path 1873" d="M0,0A41.639,41.639,0,0,0,2.936,7.177c.3.561.628,1.1.953,1.644s.674,1.062,1.045,1.563c.176.258.376.5.569.739s.392.479.6.708A15.99,15.99,0,0,0,7.37,13.152l.676.606.712.555a14.947,14.947,0,0,0,1.507.963,6.054,6.054,0,0,0,.791.4c.274.112.529.269.813.356l.834.3.86.229a7.531,7.531,0,0,0,.873.184,7.825,7.825,0,0,0,.885.138,15.941,15.941,0,0,0,1.8.1,17.531,17.531,0,0,0,1.827-.072c.612-.042,1.223-.157,1.836-.23l-.114.029,1.843-.575.927-.279a8.282,8.282,0,0,0,.9-.328l1.787-.7c.555-.3,1.126-.572,1.7-.859a6.154,6.154,0,0,0,.806-.5l.794-.526a7.992,7.992,0,0,0,.747-.59c.24-.209.5-.4.73-.627s.446-.466.679-.7a9.827,9.827,0,0,0,.66-.731L33.552,8.8c-.287.607-.569,1.207-.891,1.8-.161.3-.307.6-.5.882s-.368.574-.558.861-.431.533-.647.8a9.089,9.089,0,0,1-.687.782l-.774.7a7.081,7.081,0,0,1-.8.667c-.567.39-1.131.8-1.717,1.174l-1.827.95a9.6,9.6,0,0,1-.927.45l-.947.38-1.907.745-.041.016-.073.013c-.677.121-1.347.281-2.035.366a17.827,17.827,0,0,1-2.083.155c-.351,0-.7.025-1.052,0l-1.056-.083a9.97,9.97,0,0,1-1.052-.152,8.344,8.344,0,0,1-1.044-.214l-1.03-.288-1-.376a9.786,9.786,0,0,1-.973-.447A7.811,7.811,0,0,1,9,17.468a14.583,14.583,0,0,1-1.748-1.214l-.8-.694c-.254-.244-.5-.495-.744-.744a18.183,18.183,0,0,1-1.333-1.6,9.942,9.942,0,0,1-.588-.851c-.186-.29-.376-.576-.54-.876-.349-.589-.66-1.195-.955-1.805s-.534-1.244-.772-1.873S1.078,6.538.9,5.894.57,4.6.44,3.946.217,2.635.13,1.98A17.3,17.3,0,0,1,0,0" fill="#996f4f"/>
  </g>
  <g id="Group_927" data-name="Group 927" transform="translate(115.005 30.06)">
    <path id="Path_1874" data-name="Path 1874" d="M-5.577-8.645c-.282-.183-.561-.374-.84-.565l-.712-.555-.675-.606a15.8,15.8,0,0,1-1.271-1.321c-.2-.23-.409-.461-.6-.708s-.393-.481-.569-.738c-.371-.5-.713-1.028-1.044-1.563s-.652-1.083-.954-1.644a41.683,41.683,0,0,1-2.936-7.176,17.433,17.433,0,0,0,.13,1.979c.087.656.169,1.317.311,1.967s.288,1.3.458,1.947.394,1.28.619,1.913.48,1.261.772,1.874.606,1.216.955,1.805c.164.3.355.586.541.875a9.837,9.837,0,0,0,.588.851,18.293,18.293,0,0,0,1.334,1.6c.245.249.49.5.744.743l.8.694A14.51,14.51,0,0,0-6.179-6.055a7.859,7.859,0,0,0,.935.516c.157.074.312.155.47.231a19.326,19.326,0,0,1-.8-3.338" transform="translate(15.175 23.522)" fill="#66452d"/>
  </g>
  <g id="Group_928" data-name="Group 928" transform="translate(111.59 0)">
    <path id="Path_1875" data-name="Path 1875" d="M-26.455-13.044c.146-10.088-5.774-19.036-15.315-21.685-11.853-3.29-24.821,4.38-29.1,17.152,0,0-2.509,7.976,0,15.3A59.9,59.9,0,0,0-63.14-15.253h0l9.285-3.015,14.069,5.26,3.5,6.639c-.96,3.168-1.666,8.065,1.269,11.9,0,0,9.666-7.809,8.561-18.574" transform="translate(71.982 35.491)" fill="rgba(255,167,38,0.79)"/>
  </g>
  <g id="Group_929" data-name="Group 929" transform="translate(111.591 0.006)">
    <path id="Path_1876" data-name="Path 1876" d="M-10.17-8.917A18.018,18.018,0,0,1-3.721-20.766a16.017,16.017,0,0,1,5.407-2.952c-11.616-2.7-24.07,4.9-28.244,17.363,0,0-2.509,7.976,0,15.3A59.92,59.92,0,0,0-18.831-4.032h0l8.576-2.785a15.53,15.53,0,0,1,.083-2.1" transform="translate(27.673 24.264)" fill="#ffa726"/>
  </g>
  <g id="Group_930" data-name="Group 930" transform="translate(110.844 15.185)">
    <path id="Path_1877" data-name="Path 1877" d="M-1.884-11.278C-.743-12.653.3-14.11,1.305-15.583c2.107-3.083,3.318-6.536,5.176-9.71,1.844-3.149,9.979-.946,12.474-.24a25.3,25.3,0,0,1,7.1,3.259c.87.577,4.023,3.276,3.6,4.318C27.715-13.149,27.983-7.6,31.208-3.469c1.548,1.982,4.291-.8,2.76-2.761-3.8-4.863,1.032-9.935-1.514-14.9-2.371-4.62-8.427-7.026-13.1-8.35C14.95-30.727,8.97-31.595,4.862-29.01,2.4-27.463,1.753-24.088.469-21.692a46.469,46.469,0,0,1-5.113,7.654c-1.594,1.923,1.152,4.7,2.761,2.761" transform="translate(5.125 30.685)" fill="#cc7575"/>
  </g>
  <g id="Group_931" data-name="Group 931" transform="translate(129.1 15.244)">
    <path id="Path_1878" data-name="Path 1878" d="M-12.108-14.176c-3.8-4.862,1.032-9.935-1.515-14.9-2.371-4.62-8.427-7.026-13.1-8.35a31.447,31.447,0,0,0-6.224-1.148,16.586,16.586,0,0,1,.137,3.86,41.169,41.169,0,0,1,5.687,1.233,25.291,25.291,0,0,1,7.095,3.259c.871.577,4.023,3.276,3.6,4.318-1.937,4.807-1.669,10.359,1.555,14.487,1.548,1.983,4.291-.8,2.76-2.761" transform="translate(32.945 38.573)" fill="#df8888"/>
  </g>
  <g id="Group_932" data-name="Group 932" transform="translate(121.288 23.656)">
    <path id="Path_1879" data-name="Path 1879" d="M0-1.706a2.3,2.3,0,0,1,.112-.45,3.628,3.628,0,0,1,.6-1.088,3.663,3.663,0,0,1,.608-.609l.4-.275c.144-.08.3-.156.458-.225A4.132,4.132,0,0,1,3.211-4.62c.181-.009.366-.025.55-.023l.546.051.034,0,.018,0,.059.013.059.015.116.03.233.058a3.48,3.48,0,0,1,.548.214,3.008,3.008,0,0,1,.906.692,3.642,3.642,0,0,1,.314.436A4.069,4.069,0,0,1,6.8-2.67a2.887,2.887,0,0,1,.176.861A3.5,3.5,0,0,1,6.836-.572a2.441,2.441,0,0,1-.168.433s-.023-.168-.083-.445c-.028-.138-.069-.3-.119-.485a5.73,5.73,0,0,0-.2-.586,4,4,0,0,0-.318-.607,2.9,2.9,0,0,0-.462-.522,2.517,2.517,0,0,0-.611-.352,2.939,2.939,0,0,0-.344-.116L4.3-3.3l-.117-.027-.058-.013-.008,0h0l.042.008H4.139l-.025,0L3.7-3.391,3.3-3.4l-.393.028c-.13.015-.254.047-.381.068a5.18,5.18,0,0,0-.708.244c-.216.111-.428.219-.616.341a7.076,7.076,0,0,0-.882.694C.115-1.832,0-1.706,0-1.706" transform="translate(0 4.643)"/>
  </g>
  <g id="Group_933" data-name="Group 933" transform="translate(135.925 27.363)">
    <path id="Path_1880" data-name="Path 1880" d="M0-1.509a2.323,2.323,0,0,1,.153-.438,3.63,3.63,0,0,1,.7-1.027,3.623,3.623,0,0,1,.663-.549l.42-.237c.151-.066.311-.126.476-.18a4.1,4.1,0,0,1,1.059-.166c.181.008.366.009.549.028l.539.1.034.007.016,0,.059.018.057.02.113.04.226.08a3.5,3.5,0,0,1,.525.265,2.988,2.988,0,0,1,.837.774A3.606,3.606,0,0,1,6.7-2.3a4.237,4.237,0,0,1,.162.476,2.882,2.882,0,0,1,.093.873A3.485,3.485,0,0,1,6.7.265a2.486,2.486,0,0,1-.207.414s-.008-.17-.042-.45c-.015-.14-.04-.308-.073-.494a5.636,5.636,0,0,0-.144-.6A4.06,4.06,0,0,0,5.972-1.5a2.9,2.9,0,0,0-.41-.563,2.518,2.518,0,0,0-.575-.408,2.918,2.918,0,0,0-.331-.149L4.428-2.7l-.114-.037-.058-.019-.006,0h0c-.041-.013.052.015.04.013l-.012,0L4.249-2.75l-.4-.087-.4-.046-.393-.009c-.13,0-.257.024-.385.033a5.181,5.181,0,0,0-.728.176,6.823,6.823,0,0,0-.645.281,6.988,6.988,0,0,0-.943.608C.125-1.623,0-1.509,0-1.509" transform="translate(0 4.107)"/>
  </g>
  <g id="Group_934" data-name="Group 934" transform="translate(121.297 18.737)">
    <path id="Path_1881" data-name="Path 1881" d="M0-1.79S2.075-7.076,9.294-3.8L7.847-1.97A11.727,11.727,0,0,0,0-1.79" transform="translate(0 4.871)"/>
  </g>
  <g id="Group_935" data-name="Group 935" transform="translate(137.627 21.817)">
    <path id="Path_1882" data-name="Path 1882" d="M-4.29-3.482s.537-5.653-7.383-5.992l.464,2.286A11.727,11.727,0,0,1-4.29-3.482" transform="translate(11.673 9.474)"/>
  </g>
  <g id="Group_936" data-name="Group 936" transform="translate(131.695 28.806)">
    <path id="Path_1883" data-name="Path 1883" d="M-1.416-.627S-1.641,2.355.528,2.357,1.839,5.7-.813,5.649-4.286,1.184-3.647-.185s2.44-2.387,2.231-.442" transform="translate(3.853 1.706)" fill="#cc9263"/>
  </g>
  <g id="Group_937" data-name="Group 937" transform="translate(122.312 34.056)">
    <path id="Path_1884" data-name="Path 1884" d="M0,0S9.555,5.786,16.608,4.422A8.959,8.959,0,0,1,8.279,6.965,10.317,10.317,0,0,1,0,0" transform="translate(0)" fill="#fff"/>
  </g>
  <g id="Group_938" data-name="Group 938" transform="translate(125.943 41.191)">
    <path id="Path_1885" data-name="Path 1885" d="M0,0,1.244.454c.371.132.8.284,1.264.433s.955.307,1.456.413a11.418,11.418,0,0,0,1.471.269l.684.046.614-.02.519-.075a2.228,2.228,0,0,0,.4-.1L8,1.329s-.1.078-.3.21a1.749,1.749,0,0,1-.374.212c-.153.061-.328.139-.526.2-.2.045-.419.1-.655.134-.234.015-.485.044-.743.039a7.4,7.4,0,0,1-.789-.061c-.264-.046-.537-.08-.8-.151a9.426,9.426,0,0,1-1.5-.507A9.815,9.815,0,0,1,1.088.78,7.217,7.217,0,0,1,0,0" transform="translate(0 0)" fill="#cc9263"/>
  </g>
  <g id="Group_940" data-name="Group 940" transform="translate(150.948 106.635)">
    <path id="Path_1887" data-name="Path 1887" d="M-6.562-.218c-.2-.035-.925-.046-1.631-.066-.063-.012-.122-.028-.189-.037-3.037-.354-5.46-.558-7.082.669A9.528,9.528,0,0,0-17.856,2.94c4.967-.705,3.049,3.537,3.049,3.537-.976,3.773,2.359,1.139,2.359,1.139a1.666,1.666,0,0,0,2.807-.244c.607.995,1.453.874,2.017-.018.229.1.018-.106,0,0C-5.636,10.51-1.554.663-6.562-.218" transform="translate(17.856 0.593)" fill="#e1af7e"/>
  </g>
  <path id="Path_1888" data-name="Path 1888" d="M0-392.547H242.6V-144.27H0Z" transform="translate(0 392.547)" fill="none"/>
  <rect id="Rectangle_370" data-name="Rectangle 370" width="3.024" height="31.249" transform="translate(144.038 78.805) rotate(-17)" fill="#e1af7e"/>
</svg>
